<?xml version="1.0" encoding="UTF-8" standalone="no"?><svg xmlns="http://www.w3.org/2000/svg" xmlns:xlink="http://www.w3.org/1999/xlink" contentStyleType="text/css" height="898px" preserveAspectRatio="none" style="width:1719px;height:898px;background:#FFFFFF;" version="1.1" viewBox="0 0 1719 898" width="1719px" zoomAndPan="magnify"><defs/><g><ellipse cx="731" cy="20" fill="#222222" rx="10" ry="10" style="stroke:#222222;stroke-width:1.0;"/><rect fill="#F1F1F1" height="34.1328" rx="12.5" ry="12.5" style="stroke:#181818;stroke-width:0.5;" width="285" x="588.5" y="104.1328"/><text fill="#000000" font-family="sans-serif" font-size="12" lengthAdjust="spacing" textLength="265" x="598.5" y="125.7344">Wann es ein guter Tag ist, um es zu benutzen</text><rect fill="#F1F1F1" height="359.7539" style="stroke:#181818;stroke-width:1.5;" width="1440" x="11" y="192.2656"/><text fill="#000000" font-family="sans-serif" font-size="14" lengthAdjust="spacing" textLength="165" x="648.5" y="207.8008">Im Falle einer fehlenden</text><rect fill="#555555" height="6" rx="2.5" ry="2.5" style="stroke:#555555;stroke-width:1.0;" width="1420" x="21" y="228.7539"/><rect fill="#F1F1F1" height="34.1328" rx="12.5" ry="12.5" style="stroke:#181818;stroke-width:0.5;" width="93" x="35" y="254.7539"/><text fill="#000000" font-family="sans-serif" font-size="12" lengthAdjust="spacing" textLength="73" x="45" y="276.3555">Nach 20 Uhr</text><rect fill="#F1F1F1" height="34.1328" rx="12.5" ry="12.5" style="stroke:#181818;stroke-width:0.5;" width="147" x="156" y="254.7539"/><text fill="#000000" font-family="sans-serif" font-size="12" lengthAdjust="spacing" textLength="127" x="166" y="276.3555">Kein genehmigter Tag</text><rect fill="#F1F1F1" height="34.1328" rx="12.5" ry="12.5" style="stroke:#181818;stroke-width:0.5;" width="235" x="331" y="254.7539"/><text fill="#000000" font-family="sans-serif" font-size="12" lengthAdjust="spacing" textLength="215" x="341" y="276.3555">Mehr als eine halbe Stunde verbracht</text><rect fill="#F1F1F1" height="34.1328" rx="12.5" ry="12.5" style="stroke:#181818;stroke-width:0.5;" width="97" x="594" y="254.7539"/><text fill="#000000" font-family="sans-serif" font-size="12" lengthAdjust="spacing" textLength="77" x="604" y="276.3555">Nicht studiert</text><rect fill="#F1F1F1" height="34.1328" rx="12.5" ry="12.5" style="stroke:#181818;stroke-width:0.5;" width="239" x="719" y="254.7539"/><text fill="#000000" font-family="sans-serif" font-size="12" lengthAdjust="spacing" textLength="219" x="729" y="276.3555">Benutzt, wenn Gäste anwesend waren</text><rect fill="#F1F1F1" height="34.1328" rx="12.5" ry="12.5" style="stroke:#181818;stroke-width:0.5;" width="157" x="986" y="254.7539"/><text fill="#000000" font-family="sans-serif" font-size="12" lengthAdjust="spacing" textLength="137" x="996" y="276.3555">Wurde draußen benutzt</text><rect fill="#F1F1F1" height="34.1328" rx="12.5" ry="12.5" style="stroke:#181818;stroke-width:0.5;" width="256" x="1171" y="254.7539"/><text fill="#000000" font-family="sans-serif" font-size="12" lengthAdjust="spacing" textLength="236" x="1181" y="276.3555">Außerhalb der Benutzungszeiten benutzt</text><rect fill="#555555" height="6" rx="2.5" ry="2.5" style="stroke:#555555;stroke-width:1.0;" width="1420" x="21" y="308.8867"/><rect fill="#F1F1F1" height="39.5" rx="12.5" ry="12.5" style="stroke:#181818;stroke-width:0.5;" width="81" x="690.5" y="366.3867"/><text fill="#000000" font-family="sans-serif" font-size="12" lengthAdjust="spacing" textLength="39" x="700.5" y="393.3555">Verbot</text><path d="M761,385.3867 C761,380.6922 757.1945,376.8867 752.5,376.8867 C747.8055,376.8867 744,380.6922 744,385.3867 C744,390.0812 747.8055,393.8867 752.5,393.8867 C757.1945,393.8867 761,390.0812 761,385.3867 " fill="#181818" style="stroke:;stroke-width:0.0;stroke-dasharray:;"/><path d="M750,391.8867 C748.5,391.8867 748.5,391.8867 748.5,390.3867 L748.5,380.3867 C748.5,378.8867 748.5,378.8867 750,378.8867 L755,378.8867 C756.5,378.8867 756.5,378.8867 756.5,380.3867 L756.5,390.3867 C756.5,391.8867 756.5,391.8867 755,391.8867 L750,391.8867 " fill="#FFFFFF" style="stroke:;stroke-width:0.0;stroke-dasharray:;"/><path d="M749.5,380.8867 L755.5,380.8867 L755.5,389.8867 L749.5,389.8867 " fill="#181818" style="stroke:;stroke-width:0.0;stroke-dasharray:;"/><path d="M752.5,376.3867 C747.53,376.3867 743.5,380.4162 743.5,385.3867 C743.5,390.3572 747.5295,394.3867 752.5,394.3867 C757.4705,394.3867 761.5,390.3572 761.5,385.3867 C761.5,380.4162 757.4705,376.3867 752.5,376.3867 M752.5,393.3867 C748.082,393.3867 744.5,389.8052 744.5,385.3867 C744.5,383.5307 745.138,381.8262 746.1985,380.4692 L757.417,391.6877 C756.06,392.7492 754.3565,393.3867 752.5,393.3867 M758.34,390.8427 L747.0445,379.5472 C748.474,378.2107 750.3885,377.3867 752.5,377.3867 C756.9185,377.3867 760.5,380.9682 760.5,385.3867 C760.5,387.4982 759.676,389.4132 758.34,390.8427 " fill="#DD2E44" style="stroke:;stroke-width:0.0;stroke-dasharray:;"/><rect fill="#F1F1F1" height="34.1328" rx="12.5" ry="12.5" style="stroke:#181818;stroke-width:0.5;" width="354" x="554" y="440.8867"/><text fill="#000000" font-family="sans-serif" font-size="12" lengthAdjust="spacing" textLength="334" x="564" y="462.4883">Im Falle eines Regelverstoßes für eine Woche nicht erlaubt</text><ellipse cx="731" cy="521.0195" fill="none" rx="11" ry="11" style="stroke:#222222;stroke-width:1.0;"/><ellipse cx="731" cy="521.0195" fill="#222222" rx="6" ry="6" style="stroke:#111111;stroke-width:1.0;"/><polygon fill="#F1F1F1" points="635.5,158.2656,826.5,158.2656,838.5,170.2656,826.5,182.2656,635.5,182.2656,623.5,170.2656,635.5,158.2656" style="stroke:#181818;stroke-width:0.5;"/><text fill="#000000" font-family="sans-serif" font-size="11" lengthAdjust="spacing" textLength="191" x="635.5" y="174.4229">Schalten Sie Ihr Mobiltelefon ein. On</text><rect fill="#F1F1F1" height="217.1211" style="stroke:#181818;stroke-width:1.5;" width="947" x="257.5" y="584.0195"/><text fill="#000000" font-family="sans-serif" font-size="14" lengthAdjust="spacing" textLength="104" x="679" y="599.5547">Wenn es gut ist</text><rect fill="#555555" height="6" rx="2.5" ry="2.5" style="stroke:#555555;stroke-width:1.0;" width="927" x="267.5" y="620.5078"/><rect fill="#F1F1F1" height="34.1328" rx="12.5" ry="12.5" style="stroke:#181818;stroke-width:0.5;" width="348" x="281.5" y="646.5078"/><text fill="#000000" font-family="sans-serif" font-size="12" lengthAdjust="spacing" textLength="328" x="291.5" y="668.1094">bis zu 45 Minuten, wenn sie zum Lernen genutzt werden</text><rect fill="#F1F1F1" height="34.1328" rx="12.5" ry="12.5" style="stroke:#181818;stroke-width:0.5;" width="161" x="657.5" y="646.5078"/><text fill="#000000" font-family="sans-serif" font-size="12" lengthAdjust="spacing" textLength="141" x="667.5" y="668.1094">Spiele einmal pro Woche</text><rect fill="#F1F1F1" height="34.1328" rx="12.5" ry="12.5" style="stroke:#181818;stroke-width:0.5;" width="306" x="846.5" y="646.5078"/><text fill="#000000" font-family="sans-serif" font-size="12" lengthAdjust="spacing" textLength="286" x="856.5" y="668.1094">Zweimal an Wochentagen Einmal am Wochenende</text><rect fill="#555555" height="6" rx="2.5" ry="2.5" style="stroke:#555555;stroke-width:1.0;" width="927" x="267.5" y="700.6406"/><rect fill="#98FB98" height="39.5" rx="12.5" ry="12.5" style="stroke:#181818;stroke-width:0.5;" width="58" x="702" y="741.6406"/><text fill="#000000" font-family="sans-serif" font-size="12" lengthAdjust="spacing" textLength="16" x="712" y="768.6094">Ok</text><path d="M737.5,769.6406 C735.5,769.6406 735.5,769.6406 735.5,767.6406 L735.5,753.6406 C735.5,751.6406 735.5,751.6406 737.5,751.6406 L744.5,751.6406 C746.5,751.6406 746.5,751.6406 746.5,753.6406 L746.5,767.6406 C746.5,769.6406 746.5,769.6406 744.5,769.6406 L737.5,769.6406 " fill="#31373D" style="stroke:;stroke-width:0.0;stroke-dasharray:;"/><path d="M736.5,754.1406 L745.5,754.1406 L745.5,767.1406 L736.5,767.1406 " fill="#55ACEE" style="stroke:;stroke-width:0.0;stroke-dasharray:;"/><rect fill="#F1F1F1" height="34.1328" rx="12.5" ry="12.5" style="stroke:#181818;stroke-width:0.5;" width="315" x="573.5" y="50"/><text fill="#000000" font-family="sans-serif" font-size="12" lengthAdjust="spacing" textLength="295" x="583.5" y="71.6016">Bewahren Sie Ihr Mobiltelefon in einer Schachtel auf</text><polygon fill="#F1F1F1" points="589,821.1406,873,821.1406,885,833.1406,873,845.1406,589,845.1406,577,833.1406,589,821.1406" style="stroke:#181818;stroke-width:0.5;"/><text fill="#000000" font-family="sans-serif" font-size="11" lengthAdjust="spacing" textLength="284" x="589" y="837.2979">Schalten Sie es aus, wenn Sie es nicht mehr benutzen.</text><rect fill="#F1F1F1" height="39.5" rx="12.5" ry="12.5" style="stroke:#181818;stroke-width:0.5;" width="233" x="1475" y="429.8203"/><text fill="#000000" font-family="sans-serif" font-size="12" lengthAdjust="spacing" textLength="191" x="1485" y="456.7891">Warten Sie bis zum nächsten Tag</text><ellipse cx="1689" cy="448.8203" fill="#99AAB5" rx="9" ry="9" style="stroke:#99AAB5;stroke-width:0.5;"/><ellipse cx="1689" cy="448.8203" fill="#E1E8ED" rx="7" ry="7" style="stroke:#E1E8ED;stroke-width:0.5;"/><path d="M1688.5,448.8203 C1688.5,449.0968 1688.724,449.3203 1689,449.3203 C1689.2765,449.3203 1689.5,449.0968 1689.5,448.8203 L1689.5,443.3203 C1689.5,443.0443 1689.2765,442.8203 1689,442.8203 C1688.724,442.8203 1688.5,443.0443 1688.5,443.3203 L1688.5,448.8203 " fill="#66757F" style="stroke:;stroke-width:0.0;stroke-dasharray:;"/><path d="M1684.67,451.3203 C1684.8075,451.5598 1685.1135,451.6418 1685.3525,451.5038 L1689.25,449.2538 C1689.4895,449.1158 1689.571,448.8093 1689.4325,448.5703 C1689.295,448.3313 1688.989,448.2493 1688.75,448.3878 L1684.8525,450.6378 C1684.6135,450.7758 1684.5315,451.0813 1684.67,451.3203 " fill="#66757F" style="stroke:;stroke-width:0.0;stroke-dasharray:;"/><ellipse cx="731" cy="876.1406" fill="none" rx="11" ry="11" style="stroke:#222222;stroke-width:1.0;"/><ellipse cx="731" cy="876.1406" fill="#222222" rx="6" ry="6" style="stroke:#111111;stroke-width:1.0;"/><line style="stroke:#181818;stroke-width:1.0;" x1="81.5" x2="81.5" y1="234.7539" y2="254.7539"/><polygon fill="#181818" points="77.5,244.7539,81.5,254.7539,85.5,244.7539,81.5,248.7539" style="stroke:#181818;stroke-width:1.0;"/><line style="stroke:#181818;stroke-width:1.0;" x1="229.5" x2="229.5" y1="234.7539" y2="254.7539"/><polygon fill="#181818" points="225.5,244.7539,229.5,254.7539,233.5,244.7539,229.5,248.7539" style="stroke:#181818;stroke-width:1.0;"/><line style="stroke:#181818;stroke-width:1.0;" x1="448.5" x2="448.5" y1="234.7539" y2="254.7539"/><polygon fill="#181818" points="444.5,244.7539,448.5,254.7539,452.5,244.7539,448.5,248.7539" style="stroke:#181818;stroke-width:1.0;"/><line style="stroke:#181818;stroke-width:1.0;" x1="642.5" x2="642.5" y1="234.7539" y2="254.7539"/><polygon fill="#181818" points="638.5,244.7539,642.5,254.7539,646.5,244.7539,642.5,248.7539" style="stroke:#181818;stroke-width:1.0;"/><line style="stroke:#181818;stroke-width:1.0;" x1="838.5" x2="838.5" y1="234.7539" y2="254.7539"/><polygon fill="#181818" points="834.5,244.7539,838.5,254.7539,842.5,244.7539,838.5,248.7539" style="stroke:#181818;stroke-width:1.0;"/><line style="stroke:#181818;stroke-width:1.0;" x1="1064.5" x2="1064.5" y1="234.7539" y2="254.7539"/><polygon fill="#181818" points="1060.5,244.7539,1064.5,254.7539,1068.5,244.7539,1064.5,248.7539" style="stroke:#181818;stroke-width:1.0;"/><line style="stroke:#181818;stroke-width:1.0;" x1="1299" x2="1299" y1="234.7539" y2="254.7539"/><polygon fill="#181818" points="1295,244.7539,1299,254.7539,1303,244.7539,1299,248.7539" style="stroke:#181818;stroke-width:1.0;"/><line style="stroke:#181818;stroke-width:1.0;" x1="81.5" x2="81.5" y1="288.8867" y2="308.8867"/><polygon fill="#181818" points="77.5,298.8867,81.5,308.8867,85.5,298.8867,81.5,302.8867" style="stroke:#181818;stroke-width:1.0;"/><line style="stroke:#181818;stroke-width:1.0;" x1="229.5" x2="229.5" y1="288.8867" y2="308.8867"/><polygon fill="#181818" points="225.5,298.8867,229.5,308.8867,233.5,298.8867,229.5,302.8867" style="stroke:#181818;stroke-width:1.0;"/><line style="stroke:#181818;stroke-width:1.0;" x1="448.5" x2="448.5" y1="288.8867" y2="308.8867"/><polygon fill="#181818" points="444.5,298.8867,448.5,308.8867,452.5,298.8867,448.5,302.8867" style="stroke:#181818;stroke-width:1.0;"/><line style="stroke:#181818;stroke-width:1.0;" x1="642.5" x2="642.5" y1="288.8867" y2="308.8867"/><polygon fill="#181818" points="638.5,298.8867,642.5,308.8867,646.5,298.8867,642.5,302.8867" style="stroke:#181818;stroke-width:1.0;"/><line style="stroke:#181818;stroke-width:1.0;" x1="838.5" x2="838.5" y1="288.8867" y2="308.8867"/><polygon fill="#181818" points="834.5,298.8867,838.5,308.8867,842.5,298.8867,838.5,302.8867" style="stroke:#181818;stroke-width:1.0;"/><line style="stroke:#181818;stroke-width:1.0;" x1="1064.5" x2="1064.5" y1="288.8867" y2="308.8867"/><polygon fill="#181818" points="1060.5,298.8867,1064.5,308.8867,1068.5,298.8867,1064.5,302.8867" style="stroke:#181818;stroke-width:1.0;"/><line style="stroke:#181818;stroke-width:1.0;" x1="1299" x2="1299" y1="288.8867" y2="308.8867"/><polygon fill="#181818" points="1295,298.8867,1299,308.8867,1303,298.8867,1299,302.8867" style="stroke:#181818;stroke-width:1.0;"/><line style="stroke:#181818;stroke-width:1.0;" x1="731" x2="731" y1="314.8867" y2="366.3867"/><polygon fill="#181818" points="727,356.3867,731,366.3867,735,356.3867,731,360.3867" style="stroke:#181818;stroke-width:1.0;"/><path d="M743.25,332.3867 C738.6937,332.3867 735,336.0804 735,340.6367 C735,345.193 738.6937,348.8867 743.25,348.8867 C747.8063,348.8867 751.5,345.193 751.5,340.6367 C751.5,336.0804 747.8063,332.3867 743.25,332.3867 M749.2083,340.6367 C749.2083,341.8123 748.8632,342.9055 748.2756,343.829 L740.0582,335.6116 C740.9813,335.0235 742.0744,334.6784 743.25,334.6784 C746.5408,334.6784 749.2083,337.3463 749.2083,340.6367 M737.2917,340.6367 C737.2917,339.4611 737.6368,338.368 738.2248,337.4449 L746.4423,345.6623 C745.5188,346.2499 744.4256,346.5951 743.25,346.5951 C739.9596,346.5951 737.2917,343.9276 737.2917,340.6367 " fill="#DD2E44" style="stroke:;stroke-width:0.0;stroke-dasharray:;"/><line style="stroke:#181818;stroke-width:1.0;" x1="731" x2="731" y1="405.8867" y2="440.8867"/><polygon fill="#181818" points="727,430.8867,731,440.8867,735,430.8867,731,434.8867" style="stroke:#181818;stroke-width:1.0;"/><line style="stroke:#181818;stroke-width:1.0;" x1="731" x2="731" y1="475.0195" y2="510.0195"/><polygon fill="#181818" points="727,500.0195,731,510.0195,735,500.0195,731,504.0195" style="stroke:#181818;stroke-width:1.0;"/><line style="stroke:#181818;stroke-width:1.0;" x1="731" x2="731" y1="182.2656" y2="228.7539"/><polygon fill="#181818" points="727,218.7539,731,228.7539,735,218.7539,731,222.7539" style="stroke:#181818;stroke-width:1.0;"/><line style="stroke:#181818;stroke-width:1.0;" x1="838.5" x2="1461" y1="170.2656" y2="170.2656"/><polygon fill="#181818" points="1457,359.1426,1461,369.1426,1465,359.1426,1461,363.1426" style="stroke:#181818;stroke-width:1.0;"/><line style="stroke:#181818;stroke-width:1.0;" x1="1461" x2="1461" y1="170.2656" y2="574.0195"/><line style="stroke:#181818;stroke-width:1.0;" x1="1461" x2="731" y1="574.0195" y2="574.0195"/><line style="stroke:#181818;stroke-width:1.0;" x1="731" x2="731" y1="574.0195" y2="620.5078"/><polygon fill="#181818" points="727,610.5078,731,620.5078,735,610.5078,731,614.5078" style="stroke:#181818;stroke-width:1.0;"/><line style="stroke:#181818;stroke-width:1.0;" x1="731" x2="731" y1="138.2656" y2="158.2656"/><polygon fill="#181818" points="727,148.2656,731,158.2656,735,148.2656,731,152.2656" style="stroke:#181818;stroke-width:1.0;"/><line style="stroke:#181818;stroke-width:1.0;" x1="455.5" x2="455.5" y1="626.5078" y2="646.5078"/><polygon fill="#181818" points="451.5,636.5078,455.5,646.5078,459.5,636.5078,455.5,640.5078" style="stroke:#181818;stroke-width:1.0;"/><line style="stroke:#181818;stroke-width:1.0;" x1="738" x2="738" y1="626.5078" y2="646.5078"/><polygon fill="#181818" points="734,636.5078,738,646.5078,742,636.5078,738,640.5078" style="stroke:#181818;stroke-width:1.0;"/><line style="stroke:#181818;stroke-width:1.0;" x1="999.5" x2="999.5" y1="626.5078" y2="646.5078"/><polygon fill="#181818" points="995.5,636.5078,999.5,646.5078,1003.5,636.5078,999.5,640.5078" style="stroke:#181818;stroke-width:1.0;"/><line style="stroke:#181818;stroke-width:1.0;" x1="1180.5" x2="1180.5" y1="626.5078" y2="700.6406"/><polygon fill="#181818" points="1176.5,690.6406,1180.5,700.6406,1184.5,690.6406,1180.5,694.6406" style="stroke:#181818;stroke-width:1.0;"/><line style="stroke:#181818;stroke-width:1.0;" x1="455.5" x2="455.5" y1="680.6406" y2="700.6406"/><polygon fill="#181818" points="451.5,690.6406,455.5,700.6406,459.5,690.6406,455.5,694.6406" style="stroke:#181818;stroke-width:1.0;"/><line style="stroke:#181818;stroke-width:1.0;" x1="738" x2="738" y1="680.6406" y2="700.6406"/><polygon fill="#181818" points="734,690.6406,738,700.6406,742,690.6406,738,694.6406" style="stroke:#181818;stroke-width:1.0;"/><line style="stroke:#181818;stroke-width:1.0;" x1="999.5" x2="999.5" y1="680.6406" y2="700.6406"/><polygon fill="#181818" points="995.5,690.6406,999.5,700.6406,1003.5,690.6406,999.5,694.6406" style="stroke:#181818;stroke-width:1.0;"/><line style="stroke:#181818;stroke-width:1.0;" x1="731" x2="731" y1="706.6406" y2="741.6406"/><polygon fill="#181818" points="727,731.6406,731,741.6406,735,731.6406,731,735.6406" style="stroke:#181818;stroke-width:1.0;"/><line style="stroke:#181818;stroke-width:1.0;" x1="731" x2="731" y1="84.1328" y2="104.1328"/><polygon fill="#181818" points="727,94.1328,731,104.1328,735,94.1328,731,98.1328" style="stroke:#181818;stroke-width:1.0;"/><line style="stroke:#181818;stroke-width:1.0;" x1="885" x2="1591.5" y1="833.1406" y2="833.1406"/><line style="stroke:#181818;stroke-width:1.0;" x1="1591.5" x2="1591.5" y1="469.3203" y2="833.1406"/><polygon fill="#181818" points="1587.5,479.3203,1591.5,469.3203,1595.5,479.3203,1591.5,475.3203" style="stroke:#181818;stroke-width:1.0;"/><line style="stroke:#181818;stroke-width:1.0;" x1="1591.5" x2="1591.5" y1="67.0664" y2="429.8203"/><line style="stroke:#181818;stroke-width:1.0;" x1="1591.5" x2="888.5" y1="67.0664" y2="67.0664"/><polygon fill="#181818" points="898.5,63.0664,888.5,67.0664,898.5,71.0664,894.5,67.0664" style="stroke:#181818;stroke-width:1.0;"/><line style="stroke:#181818;stroke-width:1.0;" x1="731" x2="731" y1="781.1406" y2="821.1406"/><polygon fill="#181818" points="727,811.1406,731,821.1406,735,811.1406,731,815.1406" style="stroke:#181818;stroke-width:1.0;"/><line style="stroke:#181818;stroke-width:1.0;" x1="731" x2="731" y1="30" y2="50"/><polygon fill="#181818" points="727,40,731,50,735,40,731,44" style="stroke:#181818;stroke-width:1.0;"/><line style="stroke:#181818;stroke-width:1.0;" x1="731" x2="731" y1="845.1406" y2="865.1406"/><polygon fill="#181818" points="727,855.1406,731,865.1406,735,855.1406,731,859.1406" style="stroke:#181818;stroke-width:1.0;"/><!--MD5=[ea2a1aedeb334a1876702b566195fff5]
@startuml
!$no = "<:1f6ab:>"
' !$no = "<color:crimson>no"
' !$yes = "<color:palegreen>yes"
!$ok = "<:1f44c:>"
!$stop = "<:1f4f5:>"
!$greenOk = "#PaleGreen:Ok"
!$iphone = "<:1f4f1:>"
start
repeat :Bewahren Sie Ihr Mobiltelefon in einer Schachtel auf;
:Wann es ein guter Tag ist, um es zu benutzen;
if (Schalten Sie Ihr Mobiltelefon ein. On) then
  rectangle "Im Falle einer fehlenden" {
    fork
      :Nach 20 Uhr;
    fork again
      :Kein genehmigter Tag;
    fork again
      :Mehr als eine halbe Stunde verbracht;
    fork again
      :Nicht studiert;
    fork again
      :Benutzt, wenn Gäste anwesend waren;
    fork again
      :Wurde draußen benutzt;
    fork again
      :Außerhalb der Benutzungszeiten benutzt;
    end fork
    ' #Crimsom:$stop 禁止;
    ->$no;
    :Verbot $stop;
    :Im Falle eines Regelverstoßes für eine Woche nicht erlaubt;
    stop
  }
endif
backward:Warten Sie bis zum nächsten Tag <:1f557:>;
rectangle "Wenn es gut ist" {
  fork
    :bis zu 45 Minuten, wenn sie zum Lernen genutzt werden;
  fork again
    :Spiele einmal pro Woche;
  fork again
    :Zweimal an Wochentagen Einmal am Wochenende;
  fork again
  end fork
  $greenOk $iphone;
}
repeat while (Schalten Sie es aus, wenn Sie es nicht mehr benutzen.)
stop
@enduml

@startuml
start
repeat :Bewahren Sie Ihr Mobiltelefon in einer Schachtel auf;
:Wann es ein guter Tag ist, um es zu benutzen;
if (Schalten Sie Ihr Mobiltelefon ein. On) then
  rectangle "Im Falle einer fehlenden" {
    fork
      :Nach 20 Uhr;
    fork again
      :Kein genehmigter Tag;
    fork again
      :Mehr als eine halbe Stunde verbracht;
    fork again
      :Nicht studiert;
    fork again
      :Benutzt, wenn Gäste anwesend waren;
    fork again
      :Wurde draußen benutzt;
    fork again
      :Außerhalb der Benutzungszeiten benutzt;
    end fork
    -><:1f6ab:>;
    :Verbot <:1f4f5:>;
    :Im Falle eines Regelverstoßes für eine Woche nicht erlaubt;
    stop
  }
endif
backward:Warten Sie bis zum nächsten Tag <:1f557:>;
rectangle "Wenn es gut ist" {
  fork
    :bis zu 45 Minuten, wenn sie zum Lernen genutzt werden;
  fork again
    :Spiele einmal pro Woche;
  fork again
    :Zweimal an Wochentagen Einmal am Wochenende;
  fork again
  end fork
  #PaleGreen:Ok <:1f4f1:>;
}
repeat while (Schalten Sie es aus, wenn Sie es nicht mehr benutzen.)
stop
@enduml

PlantUML version 1.2022.7(Mon Aug 22 19:01:30 CEST 2022)
(GPL source distribution)
Java Runtime: OpenJDK Runtime Environment
JVM: OpenJDK 64-Bit Server VM
Default Encoding: UTF-8
Language: ja
Country: FR
--></g></svg>