<?xml version="1.0" encoding="UTF-8" standalone="no"?><svg xmlns="http://www.w3.org/2000/svg" xmlns:xlink="http://www.w3.org/1999/xlink" contentStyleType="text/css" height="898px" preserveAspectRatio="none" style="width:1683px;height:898px;background:#FFFFFF;" version="1.1" viewBox="0 0 1683 898" width="1683px" zoomAndPan="magnify"><defs/><g><ellipse cx="713" cy="20" fill="#222222" rx="10" ry="10" style="stroke:#222222;stroke-width:1.0;"/><rect fill="#F1F1F1" height="34.1328" rx="12.5" ry="12.5" style="stroke:#181818;stroke-width:0.5;" width="285" x="570.5" y="104.1328"/><text fill="#000000" font-family="sans-serif" font-size="12" lengthAdjust="spacing" textLength="265" x="580.5" y="125.7344">Wann es ein guter Tag ist, um es zu benutzen</text><rect fill="#F1F1F1" height="359.7539" style="stroke:#181818;stroke-width:1.5;" width="1404" x="11" y="192.2656"/><text fill="#000000" font-family="sans-serif" font-size="14" lengthAdjust="spacing" textLength="165" x="630.5" y="207.8008">Im Falle einer fehlenden</text><rect fill="#555555" height="6" rx="2.5" ry="2.5" style="stroke:#555555;stroke-width:1.0;" width="1384" x="21" y="228.7539"/><rect fill="#F1F1F1" height="34.1328" rx="12.5" ry="12.5" style="stroke:#181818;stroke-width:0.5;" width="93" x="35" y="254.7539"/><text fill="#000000" font-family="sans-serif" font-size="12" lengthAdjust="spacing" textLength="73" x="45" y="276.3555">Nach 20 Uhr</text><rect fill="#F1F1F1" height="34.1328" rx="12.5" ry="12.5" style="stroke:#181818;stroke-width:0.5;" width="147" x="156" y="254.7539"/><text fill="#000000" font-family="sans-serif" font-size="12" lengthAdjust="spacing" textLength="127" x="166" y="276.3555">Kein genehmigter Tag</text><rect fill="#F1F1F1" height="34.1328" rx="12.5" ry="12.5" style="stroke:#181818;stroke-width:0.5;" width="199" x="331" y="254.7539"/><text fill="#000000" font-family="sans-serif" font-size="12" lengthAdjust="spacing" textLength="179" x="341" y="276.3555">Mehr als eine Stunde verbracht</text><rect fill="#F1F1F1" height="34.1328" rx="12.5" ry="12.5" style="stroke:#181818;stroke-width:0.5;" width="97" x="558" y="254.7539"/><text fill="#000000" font-family="sans-serif" font-size="12" lengthAdjust="spacing" textLength="77" x="568" y="276.3555">Nicht studiert</text><rect fill="#F1F1F1" height="34.1328" rx="12.5" ry="12.5" style="stroke:#181818;stroke-width:0.5;" width="239" x="683" y="254.7539"/><text fill="#000000" font-family="sans-serif" font-size="12" lengthAdjust="spacing" textLength="219" x="693" y="276.3555">Benutzt, wenn Gäste anwesend waren</text><rect fill="#F1F1F1" height="34.1328" rx="12.5" ry="12.5" style="stroke:#181818;stroke-width:0.5;" width="157" x="950" y="254.7539"/><text fill="#000000" font-family="sans-serif" font-size="12" lengthAdjust="spacing" textLength="137" x="960" y="276.3555">Wurde draußen benutzt</text><rect fill="#F1F1F1" height="34.1328" rx="12.5" ry="12.5" style="stroke:#181818;stroke-width:0.5;" width="256" x="1135" y="254.7539"/><text fill="#000000" font-family="sans-serif" font-size="12" lengthAdjust="spacing" textLength="236" x="1145" y="276.3555">Außerhalb der Benutzungszeiten benutzt</text><rect fill="#555555" height="6" rx="2.5" ry="2.5" style="stroke:#555555;stroke-width:1.0;" width="1384" x="21" y="308.8867"/><rect fill="#F1F1F1" height="39.5" rx="12.5" ry="12.5" style="stroke:#181818;stroke-width:0.5;" width="81" x="672.5" y="366.3867"/><text fill="#000000" font-family="sans-serif" font-size="12" lengthAdjust="spacing" textLength="39" x="682.5" y="393.3555">Verbot</text><path d="M743,385.3867 C743,380.6922 739.1945,376.8867 734.5,376.8867 C729.8055,376.8867 726,380.6922 726,385.3867 C726,390.0812 729.8055,393.8867 734.5,393.8867 C739.1945,393.8867 743,390.0812 743,385.3867 " fill="#181818" style="stroke:;stroke-width:0.0;stroke-dasharray:;"/><path d="M732,391.8867 C730.5,391.8867 730.5,391.8867 730.5,390.3867 L730.5,380.3867 C730.5,378.8867 730.5,378.8867 732,378.8867 L737,378.8867 C738.5,378.8867 738.5,378.8867 738.5,380.3867 L738.5,390.3867 C738.5,391.8867 738.5,391.8867 737,391.8867 L732,391.8867 " fill="#FFFFFF" style="stroke:;stroke-width:0.0;stroke-dasharray:;"/><path d="M731.5,380.8867 L737.5,380.8867 L737.5,389.8867 L731.5,389.8867 " fill="#181818" style="stroke:;stroke-width:0.0;stroke-dasharray:;"/><path d="M734.5,376.3867 C729.53,376.3867 725.5,380.4162 725.5,385.3867 C725.5,390.3572 729.5295,394.3867 734.5,394.3867 C739.4705,394.3867 743.5,390.3572 743.5,385.3867 C743.5,380.4162 739.4705,376.3867 734.5,376.3867 M734.5,393.3867 C730.082,393.3867 726.5,389.8052 726.5,385.3867 C726.5,383.5307 727.138,381.8262 728.1985,380.4692 L739.417,391.6877 C738.06,392.7492 736.3565,393.3867 734.5,393.3867 M740.34,390.8427 L729.0445,379.5472 C730.474,378.2107 732.3885,377.3867 734.5,377.3867 C738.9185,377.3867 742.5,380.9682 742.5,385.3867 C742.5,387.4982 741.676,389.4132 740.34,390.8427 " fill="#DD2E44" style="stroke:;stroke-width:0.0;stroke-dasharray:;"/><rect fill="#F1F1F1" height="34.1328" rx="12.5" ry="12.5" style="stroke:#181818;stroke-width:0.5;" width="354" x="536" y="440.8867"/><text fill="#000000" font-family="sans-serif" font-size="12" lengthAdjust="spacing" textLength="334" x="546" y="462.4883">Im Falle eines Regelverstoßes für eine Woche nicht erlaubt</text><ellipse cx="713" cy="521.0195" fill="none" rx="11" ry="11" style="stroke:#222222;stroke-width:1.0;"/><ellipse cx="713" cy="521.0195" fill="#222222" rx="6" ry="6" style="stroke:#111111;stroke-width:1.0;"/><polygon fill="#F1F1F1" points="633.5,158.2656,792.5,158.2656,804.5,170.2656,792.5,182.2656,633.5,182.2656,621.5,170.2656,633.5,158.2656" style="stroke:#181818;stroke-width:0.5;"/><text fill="#000000" font-family="sans-serif" font-size="11" lengthAdjust="spacing" textLength="159" x="633.5" y="174.4229">Schalten Sie Ihr Handy ein. On</text><rect fill="#F1F1F1" height="217.1211" style="stroke:#181818;stroke-width:1.5;" width="571" x="427.5" y="584.0195"/><text fill="#000000" font-family="sans-serif" font-size="14" lengthAdjust="spacing" textLength="104" x="661" y="599.5547">Wenn es gut ist</text><rect fill="#555555" height="6" rx="2.5" ry="2.5" style="stroke:#555555;stroke-width:1.0;" width="551" x="437.5" y="620.5078"/><rect fill="#F1F1F1" height="34.1328" rx="12.5" ry="12.5" style="stroke:#181818;stroke-width:0.5;" width="161" x="451.5" y="646.5078"/><text fill="#000000" font-family="sans-serif" font-size="12" lengthAdjust="spacing" textLength="141" x="461.5" y="668.1094">Spiele einmal pro Woche</text><rect fill="#F1F1F1" height="34.1328" rx="12.5" ry="12.5" style="stroke:#181818;stroke-width:0.5;" width="306" x="640.5" y="646.5078"/><text fill="#000000" font-family="sans-serif" font-size="12" lengthAdjust="spacing" textLength="286" x="650.5" y="668.1094">Zweimal an Wochentagen Einmal am Wochenende</text><rect fill="#555555" height="6" rx="2.5" ry="2.5" style="stroke:#555555;stroke-width:1.0;" width="551" x="437.5" y="700.6406"/><rect fill="#98FB98" height="39.5" rx="12.5" ry="12.5" style="stroke:#181818;stroke-width:0.5;" width="58" x="684" y="741.6406"/><text fill="#000000" font-family="sans-serif" font-size="12" lengthAdjust="spacing" textLength="16" x="694" y="768.6094">Ok</text><path d="M719.5,769.6406 C717.5,769.6406 717.5,769.6406 717.5,767.6406 L717.5,753.6406 C717.5,751.6406 717.5,751.6406 719.5,751.6406 L726.5,751.6406 C728.5,751.6406 728.5,751.6406 728.5,753.6406 L728.5,767.6406 C728.5,769.6406 728.5,769.6406 726.5,769.6406 L719.5,769.6406 " fill="#31373D" style="stroke:;stroke-width:0.0;stroke-dasharray:;"/><path d="M718.5,754.1406 L727.5,754.1406 L727.5,767.1406 L718.5,767.1406 " fill="#55ACEE" style="stroke:;stroke-width:0.0;stroke-dasharray:;"/><rect fill="#F1F1F1" height="34.1328" rx="12.5" ry="12.5" style="stroke:#181818;stroke-width:0.5;" width="282" x="572" y="50"/><text fill="#000000" font-family="sans-serif" font-size="12" lengthAdjust="spacing" textLength="262" x="582" y="71.6016">Bewahren Sie Ihr Handy in einer Schachtel auf</text><polygon fill="#F1F1F1" points="571,821.1406,855,821.1406,867,833.1406,855,845.1406,571,845.1406,559,833.1406,571,821.1406" style="stroke:#181818;stroke-width:0.5;"/><text fill="#000000" font-family="sans-serif" font-size="11" lengthAdjust="spacing" textLength="284" x="571" y="837.2979">Schalten Sie es aus, wenn Sie es nicht mehr benutzen.</text><rect fill="#F1F1F1" height="39.5" rx="12.5" ry="12.5" style="stroke:#181818;stroke-width:0.5;" width="233" x="1439" y="429.8203"/><text fill="#000000" font-family="sans-serif" font-size="12" lengthAdjust="spacing" textLength="191" x="1449" y="456.7891">Warten Sie bis zum nächsten Tag</text><ellipse cx="1653" cy="448.8203" fill="#99AAB5" rx="9" ry="9" style="stroke:#99AAB5;stroke-width:0.5;"/><ellipse cx="1653" cy="448.8203" fill="#E1E8ED" rx="7" ry="7" style="stroke:#E1E8ED;stroke-width:0.5;"/><path d="M1652.5,448.8203 C1652.5,449.0968 1652.724,449.3203 1653,449.3203 C1653.2765,449.3203 1653.5,449.0968 1653.5,448.8203 L1653.5,443.3203 C1653.5,443.0443 1653.2765,442.8203 1653,442.8203 C1652.724,442.8203 1652.5,443.0443 1652.5,443.3203 L1652.5,448.8203 " fill="#66757F" style="stroke:;stroke-width:0.0;stroke-dasharray:;"/><path d="M1648.67,451.3203 C1648.8075,451.5598 1649.1135,451.6418 1649.3525,451.5038 L1653.25,449.2538 C1653.4895,449.1158 1653.571,448.8093 1653.4325,448.5703 C1653.295,448.3313 1652.989,448.2493 1652.75,448.3878 L1648.8525,450.6378 C1648.6135,450.7758 1648.5315,451.0813 1648.67,451.3203 " fill="#66757F" style="stroke:;stroke-width:0.0;stroke-dasharray:;"/><ellipse cx="713" cy="876.1406" fill="none" rx="11" ry="11" style="stroke:#222222;stroke-width:1.0;"/><ellipse cx="713" cy="876.1406" fill="#222222" rx="6" ry="6" style="stroke:#111111;stroke-width:1.0;"/><line style="stroke:#181818;stroke-width:1.0;" x1="81.5" x2="81.5" y1="234.7539" y2="254.7539"/><polygon fill="#181818" points="77.5,244.7539,81.5,254.7539,85.5,244.7539,81.5,248.7539" style="stroke:#181818;stroke-width:1.0;"/><line style="stroke:#181818;stroke-width:1.0;" x1="229.5" x2="229.5" y1="234.7539" y2="254.7539"/><polygon fill="#181818" points="225.5,244.7539,229.5,254.7539,233.5,244.7539,229.5,248.7539" style="stroke:#181818;stroke-width:1.0;"/><line style="stroke:#181818;stroke-width:1.0;" x1="430.5" x2="430.5" y1="234.7539" y2="254.7539"/><polygon fill="#181818" points="426.5,244.7539,430.5,254.7539,434.5,244.7539,430.5,248.7539" style="stroke:#181818;stroke-width:1.0;"/><line style="stroke:#181818;stroke-width:1.0;" x1="606.5" x2="606.5" y1="234.7539" y2="254.7539"/><polygon fill="#181818" points="602.5,244.7539,606.5,254.7539,610.5,244.7539,606.5,248.7539" style="stroke:#181818;stroke-width:1.0;"/><line style="stroke:#181818;stroke-width:1.0;" x1="802.5" x2="802.5" y1="234.7539" y2="254.7539"/><polygon fill="#181818" points="798.5,244.7539,802.5,254.7539,806.5,244.7539,802.5,248.7539" style="stroke:#181818;stroke-width:1.0;"/><line style="stroke:#181818;stroke-width:1.0;" x1="1028.5" x2="1028.5" y1="234.7539" y2="254.7539"/><polygon fill="#181818" points="1024.5,244.7539,1028.5,254.7539,1032.5,244.7539,1028.5,248.7539" style="stroke:#181818;stroke-width:1.0;"/><line style="stroke:#181818;stroke-width:1.0;" x1="1263" x2="1263" y1="234.7539" y2="254.7539"/><polygon fill="#181818" points="1259,244.7539,1263,254.7539,1267,244.7539,1263,248.7539" style="stroke:#181818;stroke-width:1.0;"/><line style="stroke:#181818;stroke-width:1.0;" x1="81.5" x2="81.5" y1="288.8867" y2="308.8867"/><polygon fill="#181818" points="77.5,298.8867,81.5,308.8867,85.5,298.8867,81.5,302.8867" style="stroke:#181818;stroke-width:1.0;"/><line style="stroke:#181818;stroke-width:1.0;" x1="229.5" x2="229.5" y1="288.8867" y2="308.8867"/><polygon fill="#181818" points="225.5,298.8867,229.5,308.8867,233.5,298.8867,229.5,302.8867" style="stroke:#181818;stroke-width:1.0;"/><line style="stroke:#181818;stroke-width:1.0;" x1="430.5" x2="430.5" y1="288.8867" y2="308.8867"/><polygon fill="#181818" points="426.5,298.8867,430.5,308.8867,434.5,298.8867,430.5,302.8867" style="stroke:#181818;stroke-width:1.0;"/><line style="stroke:#181818;stroke-width:1.0;" x1="606.5" x2="606.5" y1="288.8867" y2="308.8867"/><polygon fill="#181818" points="602.5,298.8867,606.5,308.8867,610.5,298.8867,606.5,302.8867" style="stroke:#181818;stroke-width:1.0;"/><line style="stroke:#181818;stroke-width:1.0;" x1="802.5" x2="802.5" y1="288.8867" y2="308.8867"/><polygon fill="#181818" points="798.5,298.8867,802.5,308.8867,806.5,298.8867,802.5,302.8867" style="stroke:#181818;stroke-width:1.0;"/><line style="stroke:#181818;stroke-width:1.0;" x1="1028.5" x2="1028.5" y1="288.8867" y2="308.8867"/><polygon fill="#181818" points="1024.5,298.8867,1028.5,308.8867,1032.5,298.8867,1028.5,302.8867" style="stroke:#181818;stroke-width:1.0;"/><line style="stroke:#181818;stroke-width:1.0;" x1="1263" x2="1263" y1="288.8867" y2="308.8867"/><polygon fill="#181818" points="1259,298.8867,1263,308.8867,1267,298.8867,1263,302.8867" style="stroke:#181818;stroke-width:1.0;"/><line style="stroke:#181818;stroke-width:1.0;" x1="713" x2="713" y1="314.8867" y2="366.3867"/><polygon fill="#181818" points="709,356.3867,713,366.3867,717,356.3867,713,360.3867" style="stroke:#181818;stroke-width:1.0;"/><path d="M725.25,332.3867 C720.6937,332.3867 717,336.0804 717,340.6367 C717,345.193 720.6937,348.8867 725.25,348.8867 C729.8063,348.8867 733.5,345.193 733.5,340.6367 C733.5,336.0804 729.8063,332.3867 725.25,332.3867 M731.2083,340.6367 C731.2083,341.8123 730.8632,342.9055 730.2756,343.829 L722.0582,335.6116 C722.9813,335.0235 724.0744,334.6784 725.25,334.6784 C728.5408,334.6784 731.2083,337.3463 731.2083,340.6367 M719.2917,340.6367 C719.2917,339.4611 719.6368,338.368 720.2248,337.4449 L728.4423,345.6623 C727.5188,346.2499 726.4256,346.5951 725.25,346.5951 C721.9596,346.5951 719.2917,343.9276 719.2917,340.6367 " fill="#DD2E44" style="stroke:;stroke-width:0.0;stroke-dasharray:;"/><line style="stroke:#181818;stroke-width:1.0;" x1="713" x2="713" y1="405.8867" y2="440.8867"/><polygon fill="#181818" points="709,430.8867,713,440.8867,717,430.8867,713,434.8867" style="stroke:#181818;stroke-width:1.0;"/><line style="stroke:#181818;stroke-width:1.0;" x1="713" x2="713" y1="475.0195" y2="510.0195"/><polygon fill="#181818" points="709,500.0195,713,510.0195,717,500.0195,713,504.0195" style="stroke:#181818;stroke-width:1.0;"/><line style="stroke:#181818;stroke-width:1.0;" x1="713" x2="713" y1="182.2656" y2="228.7539"/><polygon fill="#181818" points="709,218.7539,713,228.7539,717,218.7539,713,222.7539" style="stroke:#181818;stroke-width:1.0;"/><line style="stroke:#181818;stroke-width:1.0;" x1="804.5" x2="1425" y1="170.2656" y2="170.2656"/><polygon fill="#181818" points="1421,359.1426,1425,369.1426,1429,359.1426,1425,363.1426" style="stroke:#181818;stroke-width:1.0;"/><line style="stroke:#181818;stroke-width:1.0;" x1="1425" x2="1425" y1="170.2656" y2="574.0195"/><line style="stroke:#181818;stroke-width:1.0;" x1="1425" x2="713" y1="574.0195" y2="574.0195"/><line style="stroke:#181818;stroke-width:1.0;" x1="713" x2="713" y1="574.0195" y2="620.5078"/><polygon fill="#181818" points="709,610.5078,713,620.5078,717,610.5078,713,614.5078" style="stroke:#181818;stroke-width:1.0;"/><line style="stroke:#181818;stroke-width:1.0;" x1="713" x2="713" y1="138.2656" y2="158.2656"/><polygon fill="#181818" points="709,148.2656,713,158.2656,717,148.2656,713,152.2656" style="stroke:#181818;stroke-width:1.0;"/><line style="stroke:#181818;stroke-width:1.0;" x1="532" x2="532" y1="626.5078" y2="646.5078"/><polygon fill="#181818" points="528,636.5078,532,646.5078,536,636.5078,532,640.5078" style="stroke:#181818;stroke-width:1.0;"/><line style="stroke:#181818;stroke-width:1.0;" x1="793.5" x2="793.5" y1="626.5078" y2="646.5078"/><polygon fill="#181818" points="789.5,636.5078,793.5,646.5078,797.5,636.5078,793.5,640.5078" style="stroke:#181818;stroke-width:1.0;"/><line style="stroke:#181818;stroke-width:1.0;" x1="974.5" x2="974.5" y1="626.5078" y2="700.6406"/><polygon fill="#181818" points="970.5,690.6406,974.5,700.6406,978.5,690.6406,974.5,694.6406" style="stroke:#181818;stroke-width:1.0;"/><line style="stroke:#181818;stroke-width:1.0;" x1="532" x2="532" y1="680.6406" y2="700.6406"/><polygon fill="#181818" points="528,690.6406,532,700.6406,536,690.6406,532,694.6406" style="stroke:#181818;stroke-width:1.0;"/><line style="stroke:#181818;stroke-width:1.0;" x1="793.5" x2="793.5" y1="680.6406" y2="700.6406"/><polygon fill="#181818" points="789.5,690.6406,793.5,700.6406,797.5,690.6406,793.5,694.6406" style="stroke:#181818;stroke-width:1.0;"/><line style="stroke:#181818;stroke-width:1.0;" x1="713" x2="713" y1="706.6406" y2="741.6406"/><polygon fill="#181818" points="709,731.6406,713,741.6406,717,731.6406,713,735.6406" style="stroke:#181818;stroke-width:1.0;"/><line style="stroke:#181818;stroke-width:1.0;" x1="713" x2="713" y1="84.1328" y2="104.1328"/><polygon fill="#181818" points="709,94.1328,713,104.1328,717,94.1328,713,98.1328" style="stroke:#181818;stroke-width:1.0;"/><line style="stroke:#181818;stroke-width:1.0;" x1="867" x2="1555.5" y1="833.1406" y2="833.1406"/><line style="stroke:#181818;stroke-width:1.0;" x1="1555.5" x2="1555.5" y1="469.3203" y2="833.1406"/><polygon fill="#181818" points="1551.5,479.3203,1555.5,469.3203,1559.5,479.3203,1555.5,475.3203" style="stroke:#181818;stroke-width:1.0;"/><line style="stroke:#181818;stroke-width:1.0;" x1="1555.5" x2="1555.5" y1="67.0664" y2="429.8203"/><line style="stroke:#181818;stroke-width:1.0;" x1="1555.5" x2="854" y1="67.0664" y2="67.0664"/><polygon fill="#181818" points="864,63.0664,854,67.0664,864,71.0664,860,67.0664" style="stroke:#181818;stroke-width:1.0;"/><line style="stroke:#181818;stroke-width:1.0;" x1="713" x2="713" y1="781.1406" y2="821.1406"/><polygon fill="#181818" points="709,811.1406,713,821.1406,717,811.1406,713,815.1406" style="stroke:#181818;stroke-width:1.0;"/><line style="stroke:#181818;stroke-width:1.0;" x1="713" x2="713" y1="30" y2="50"/><polygon fill="#181818" points="709,40,713,50,717,40,713,44" style="stroke:#181818;stroke-width:1.0;"/><line style="stroke:#181818;stroke-width:1.0;" x1="713" x2="713" y1="845.1406" y2="865.1406"/><polygon fill="#181818" points="709,855.1406,713,865.1406,717,855.1406,713,859.1406" style="stroke:#181818;stroke-width:1.0;"/><!--MD5=[f28cbc9ecc3960f23303b27ac5bd89c6]
@startuml
!$no = "<:1f6ab:>"
' !$no = "<color:crimson>no"
' !$yes = "<color:palegreen>yes"
!$ok = "<:1f44c:>"
!$stop = "<:1f4f5:>"
!$greenOk = "#PaleGreen:Ok"
!$iphone = "<:1f4f1:>"
start
repeat :Bewahren Sie Ihr Handy in einer Schachtel auf;
:Wann es ein guter Tag ist, um es zu benutzen;
if (Schalten Sie Ihr Handy ein. On) then
  rectangle "Im Falle einer fehlenden" {
    fork
      :Nach 20 Uhr;
    fork again
      :Kein genehmigter Tag;
    fork again
      :Mehr als eine Stunde verbracht;
    fork again
      :Nicht studiert;
    fork again
      :Benutzt, wenn Gäste anwesend waren;
    fork again
      :Wurde draußen benutzt;
    fork again
      :Außerhalb der Benutzungszeiten benutzt;
    end fork
    ' #Crimsom:$stop 禁止;
    ->$no;
    :Verbot $stop;
    :Im Falle eines Regelverstoßes für eine Woche nicht erlaubt;
    stop
  }
endif
backward:Warten Sie bis zum nächsten Tag <:1f557:>;
rectangle "Wenn es gut ist" {
  fork
    :Spiele einmal pro Woche;
  fork again
    :Zweimal an Wochentagen Einmal am Wochenende;
  fork again
  end fork
  $greenOk $iphone;
}
repeat while (Schalten Sie es aus, wenn Sie es nicht mehr benutzen.)
stop
@enduml

@startuml
start
repeat :Bewahren Sie Ihr Handy in einer Schachtel auf;
:Wann es ein guter Tag ist, um es zu benutzen;
if (Schalten Sie Ihr Handy ein. On) then
  rectangle "Im Falle einer fehlenden" {
    fork
      :Nach 20 Uhr;
    fork again
      :Kein genehmigter Tag;
    fork again
      :Mehr als eine Stunde verbracht;
    fork again
      :Nicht studiert;
    fork again
      :Benutzt, wenn Gäste anwesend waren;
    fork again
      :Wurde draußen benutzt;
    fork again
      :Außerhalb der Benutzungszeiten benutzt;
    end fork
    -><:1f6ab:>;
    :Verbot <:1f4f5:>;
    :Im Falle eines Regelverstoßes für eine Woche nicht erlaubt;
    stop
  }
endif
backward:Warten Sie bis zum nächsten Tag <:1f557:>;
rectangle "Wenn es gut ist" {
  fork
    :Spiele einmal pro Woche;
  fork again
    :Zweimal an Wochentagen Einmal am Wochenende;
  fork again
  end fork
  #PaleGreen:Ok <:1f4f1:>;
}
repeat while (Schalten Sie es aus, wenn Sie es nicht mehr benutzen.)
stop
@enduml

PlantUML version 1.2022.7(Mon Aug 22 19:01:30 CEST 2022)
(GPL source distribution)
Java Runtime: OpenJDK Runtime Environment
JVM: OpenJDK 64-Bit Server VM
Default Encoding: UTF-8
Language: ja
Country: FR
--></g></svg>