<?xml version="1.0" encoding="UTF-8" standalone="no"?><svg xmlns="http://www.w3.org/2000/svg" xmlns:xlink="http://www.w3.org/1999/xlink" contentStyleType="text/css" height="898px" preserveAspectRatio="none" style="width:1160px;height:898px;background:#FFFFFF;" version="1.1" viewBox="0 0 1160 898" width="1160px" zoomAndPan="magnify"><defs/><g><ellipse cx="505" cy="20" fill="#222222" rx="10" ry="10" style="stroke:#222222;stroke-width:1.0;"/><rect fill="#F1F1F1" height="34.1328" rx="12.5" ry="12.5" style="stroke:#181818;stroke-width:0.5;" width="152" x="429" y="104.1328"/><text fill="#000000" font-family="sans-serif" font-size="12" lengthAdjust="spacing" textLength="132" x="439" y="125.7344">使っていい日になったら</text><rect fill="#F1F1F1" height="359.7539" style="stroke:#181818;stroke-width:1.5;" width="988" x="11" y="192.2656"/><text fill="#000000" font-family="sans-serif" font-size="14" lengthAdjust="spacing" textLength="70" x="470" y="207.8008">駄目な場合</text><rect fill="#555555" height="6" rx="2.5" ry="2.5" style="stroke:#555555;stroke-width:1.0;" width="968" x="21" y="228.7539"/><rect fill="#F1F1F1" height="34.1328" rx="12.5" ry="12.5" style="stroke:#181818;stroke-width:0.5;" width="72" x="35" y="254.7539"/><text fill="#000000" font-family="sans-serif" font-size="12" lengthAdjust="spacing" textLength="52" x="45" y="276.3555">20時以降</text><rect fill="#F1F1F1" height="34.1328" rx="12.5" ry="12.5" style="stroke:#181818;stroke-width:0.5;" width="140" x="135" y="254.7539"/><text fill="#000000" font-family="sans-serif" font-size="12" lengthAdjust="spacing" textLength="120" x="145" y="276.3555">許可された日じゃない</text><rect fill="#F1F1F1" height="34.1328" rx="12.5" ry="12.5" style="stroke:#181818;stroke-width:0.5;" width="108" x="303" y="254.7539"/><text fill="#000000" font-family="sans-serif" font-size="12" lengthAdjust="spacing" textLength="88" x="313" y="276.3555">30分以上使った</text><rect fill="#F1F1F1" height="34.1328" rx="12.5" ry="12.5" style="stroke:#181818;stroke-width:0.5;" width="92" x="439" y="254.7539"/><text fill="#000000" font-family="sans-serif" font-size="12" lengthAdjust="spacing" textLength="72" x="449" y="276.3555">勉強してない</text><rect fill="#F1F1F1" height="34.1328" rx="12.5" ry="12.5" style="stroke:#181818;stroke-width:0.5;" width="128" x="559" y="254.7539"/><text fill="#000000" font-family="sans-serif" font-size="12" lengthAdjust="spacing" textLength="108" x="569" y="276.3555">お客がいる時に使用</text><rect fill="#F1F1F1" height="34.1328" rx="12.5" ry="12.5" style="stroke:#181818;stroke-width:0.5;" width="116" x="715" y="254.7539"/><text fill="#000000" font-family="sans-serif" font-size="12" lengthAdjust="spacing" textLength="96" x="725" y="276.3555">外に持って行った</text><rect fill="#F1F1F1" height="34.1328" rx="12.5" ry="12.5" style="stroke:#181818;stroke-width:0.5;" width="116" x="859" y="254.7539"/><text fill="#000000" font-family="sans-serif" font-size="12" lengthAdjust="spacing" textLength="96" x="869" y="276.3555">使用時間外に使用</text><rect fill="#555555" height="6" rx="2.5" ry="2.5" style="stroke:#555555;stroke-width:1.0;" width="968" x="21" y="308.8867"/><rect fill="#F1F1F1" height="39.5" rx="12.5" ry="12.5" style="stroke:#181818;stroke-width:0.5;" width="66" x="472" y="366.3867"/><text fill="#000000" font-family="sans-serif" font-size="12" lengthAdjust="spacing" textLength="24" x="482" y="393.3555">禁止</text><path d="M527.5,385.3867 C527.5,380.6922 523.6945,376.8867 519,376.8867 C514.3055,376.8867 510.5,380.6922 510.5,385.3867 C510.5,390.0812 514.3055,393.8867 519,393.8867 C523.6945,393.8867 527.5,390.0812 527.5,385.3867 " fill="#181818" style="stroke:;stroke-width:0.0;stroke-dasharray:;"/><path d="M516.5,391.8867 C515,391.8867 515,391.8867 515,390.3867 L515,380.3867 C515,378.8867 515,378.8867 516.5,378.8867 L521.5,378.8867 C523,378.8867 523,378.8867 523,380.3867 L523,390.3867 C523,391.8867 523,391.8867 521.5,391.8867 L516.5,391.8867 " fill="#FFFFFF" style="stroke:;stroke-width:0.0;stroke-dasharray:;"/><path d="M516,380.8867 L522,380.8867 L522,389.8867 L516,389.8867 " fill="#181818" style="stroke:;stroke-width:0.0;stroke-dasharray:;"/><path d="M519,376.3867 C514.03,376.3867 510,380.4162 510,385.3867 C510,390.3572 514.0295,394.3867 519,394.3867 C523.9705,394.3867 528,390.3572 528,385.3867 C528,380.4162 523.9705,376.3867 519,376.3867 M519,393.3867 C514.582,393.3867 511,389.8052 511,385.3867 C511,383.5307 511.638,381.8262 512.6985,380.4692 L523.917,391.6877 C522.56,392.7492 520.8565,393.3867 519,393.3867 M524.84,390.8427 L513.5445,379.5472 C514.974,378.2107 516.8885,377.3867 519,377.3867 C523.4185,377.3867 527,380.9682 527,385.3867 C527,387.4982 526.176,389.4132 524.84,390.8427 " fill="#DD2E44" style="stroke:;stroke-width:0.0;stroke-dasharray:;"/><rect fill="#F1F1F1" height="34.1328" rx="12.5" ry="12.5" style="stroke:#181818;stroke-width:0.5;" width="188" x="411" y="440.8867"/><text fill="#000000" font-family="sans-serif" font-size="12" lengthAdjust="spacing" textLength="168" x="421" y="462.4883">規則違反の場合一週間使用不可</text><ellipse cx="505" cy="521.0195" fill="none" rx="11" ry="11" style="stroke:#222222;stroke-width:1.0;"/><ellipse cx="505" cy="521.0195" fill="#222222" rx="6" ry="6" style="stroke:#111111;stroke-width:1.0;"/><polygon fill="#F1F1F1" points="446,158.2656,564,158.2656,576,170.2656,564,182.2656,446,182.2656,434,170.2656,446,158.2656" style="stroke:#181818;stroke-width:0.5;"/><text fill="#000000" font-family="sans-serif" font-size="11" lengthAdjust="spacing" textLength="118" x="446" y="174.4229">携帯の電源を入れる On</text><rect fill="#F1F1F1" height="217.1211" style="stroke:#181818;stroke-width:1.5;" width="524" x="243" y="584.0195"/><text fill="#000000" font-family="sans-serif" font-size="14" lengthAdjust="spacing" textLength="56" x="477" y="599.5547">良い場合</text><rect fill="#555555" height="6" rx="2.5" ry="2.5" style="stroke:#555555;stroke-width:1.0;" width="504" x="253" y="620.5078"/><rect fill="#F1F1F1" height="34.1328" rx="12.5" ry="12.5" style="stroke:#181818;stroke-width:0.5;" width="168" x="267" y="646.5078"/><text fill="#000000" font-family="sans-serif" font-size="12" lengthAdjust="spacing" textLength="148" x="277" y="668.1094">勉強に使うのなら45分まで</text><rect fill="#F1F1F1" height="34.1328" rx="12.5" ry="12.5" style="stroke:#181818;stroke-width:0.5;" width="104" x="463" y="646.5078"/><text fill="#000000" font-family="sans-serif" font-size="12" lengthAdjust="spacing" textLength="84" x="473" y="668.1094">ゲームは週一回</text><rect fill="#F1F1F1" height="34.1328" rx="12.5" ry="12.5" style="stroke:#181818;stroke-width:0.5;" width="120" x="595" y="646.5078"/><text fill="#000000" font-family="sans-serif" font-size="12" lengthAdjust="spacing" textLength="100" x="605" y="668.1094">平日二回 週末一回</text><rect fill="#555555" height="6" rx="2.5" ry="2.5" style="stroke:#555555;stroke-width:1.0;" width="504" x="253" y="700.6406"/><rect fill="#98FB98" height="39.5" rx="12.5" ry="12.5" style="stroke:#181818;stroke-width:0.5;" width="58" x="476" y="741.6406"/><text fill="#000000" font-family="sans-serif" font-size="12" lengthAdjust="spacing" textLength="16" x="486" y="768.6094">Ok</text><path d="M511.5,769.6406 C509.5,769.6406 509.5,769.6406 509.5,767.6406 L509.5,753.6406 C509.5,751.6406 509.5,751.6406 511.5,751.6406 L518.5,751.6406 C520.5,751.6406 520.5,751.6406 520.5,753.6406 L520.5,767.6406 C520.5,769.6406 520.5,769.6406 518.5,769.6406 L511.5,769.6406 " fill="#31373D" style="stroke:;stroke-width:0.0;stroke-dasharray:;"/><path d="M510.5,754.1406 L519.5,754.1406 L519.5,767.1406 L510.5,767.1406 " fill="#55ACEE" style="stroke:;stroke-width:0.0;stroke-dasharray:;"/><rect fill="#F1F1F1" height="34.1328" rx="12.5" ry="12.5" style="stroke:#181818;stroke-width:0.5;" width="176" x="417" y="50"/><text fill="#000000" font-family="sans-serif" font-size="12" lengthAdjust="spacing" textLength="156" x="427" y="71.6016">携帯電話は箱にしまっておく</text><polygon fill="#F1F1F1" points="455.5,821.1406,554.5,821.1406,566.5,833.1406,554.5,845.1406,455.5,845.1406,443.5,833.1406,455.5,821.1406" style="stroke:#181818;stroke-width:0.5;"/><text fill="#000000" font-family="sans-serif" font-size="11" lengthAdjust="spacing" textLength="99" x="455.5" y="837.2979">使い終わったら消す</text><rect fill="#F1F1F1" height="39.5" rx="12.5" ry="12.5" style="stroke:#181818;stroke-width:0.5;" width="126" x="1023" y="429.8203"/><text fill="#000000" font-family="sans-serif" font-size="12" lengthAdjust="spacing" textLength="84" x="1033" y="456.7891">次の日まで待つ</text><ellipse cx="1130" cy="448.8203" fill="#99AAB5" rx="9" ry="9" style="stroke:#99AAB5;stroke-width:0.5;"/><ellipse cx="1130" cy="448.8203" fill="#E1E8ED" rx="7" ry="7" style="stroke:#E1E8ED;stroke-width:0.5;"/><path d="M1129.5,448.8203 C1129.5,449.0968 1129.724,449.3203 1130,449.3203 C1130.2765,449.3203 1130.5,449.0968 1130.5,448.8203 L1130.5,443.3203 C1130.5,443.0443 1130.2765,442.8203 1130,442.8203 C1129.724,442.8203 1129.5,443.0443 1129.5,443.3203 L1129.5,448.8203 " fill="#66757F" style="stroke:;stroke-width:0.0;stroke-dasharray:;"/><path d="M1125.67,451.3203 C1125.8075,451.5598 1126.1135,451.6418 1126.3525,451.5038 L1130.25,449.2538 C1130.4895,449.1158 1130.571,448.8093 1130.4325,448.5703 C1130.295,448.3313 1129.989,448.2493 1129.75,448.3878 L1125.8525,450.6378 C1125.6135,450.7758 1125.5315,451.0813 1125.67,451.3203 " fill="#66757F" style="stroke:;stroke-width:0.0;stroke-dasharray:;"/><ellipse cx="505" cy="876.1406" fill="none" rx="11" ry="11" style="stroke:#222222;stroke-width:1.0;"/><ellipse cx="505" cy="876.1406" fill="#222222" rx="6" ry="6" style="stroke:#111111;stroke-width:1.0;"/><line style="stroke:#181818;stroke-width:1.0;" x1="71" x2="71" y1="234.7539" y2="254.7539"/><polygon fill="#181818" points="67,244.7539,71,254.7539,75,244.7539,71,248.7539" style="stroke:#181818;stroke-width:1.0;"/><line style="stroke:#181818;stroke-width:1.0;" x1="205" x2="205" y1="234.7539" y2="254.7539"/><polygon fill="#181818" points="201,244.7539,205,254.7539,209,244.7539,205,248.7539" style="stroke:#181818;stroke-width:1.0;"/><line style="stroke:#181818;stroke-width:1.0;" x1="357" x2="357" y1="234.7539" y2="254.7539"/><polygon fill="#181818" points="353,244.7539,357,254.7539,361,244.7539,357,248.7539" style="stroke:#181818;stroke-width:1.0;"/><line style="stroke:#181818;stroke-width:1.0;" x1="485" x2="485" y1="234.7539" y2="254.7539"/><polygon fill="#181818" points="481,244.7539,485,254.7539,489,244.7539,485,248.7539" style="stroke:#181818;stroke-width:1.0;"/><line style="stroke:#181818;stroke-width:1.0;" x1="623" x2="623" y1="234.7539" y2="254.7539"/><polygon fill="#181818" points="619,244.7539,623,254.7539,627,244.7539,623,248.7539" style="stroke:#181818;stroke-width:1.0;"/><line style="stroke:#181818;stroke-width:1.0;" x1="773" x2="773" y1="234.7539" y2="254.7539"/><polygon fill="#181818" points="769,244.7539,773,254.7539,777,244.7539,773,248.7539" style="stroke:#181818;stroke-width:1.0;"/><line style="stroke:#181818;stroke-width:1.0;" x1="917" x2="917" y1="234.7539" y2="254.7539"/><polygon fill="#181818" points="913,244.7539,917,254.7539,921,244.7539,917,248.7539" style="stroke:#181818;stroke-width:1.0;"/><line style="stroke:#181818;stroke-width:1.0;" x1="71" x2="71" y1="288.8867" y2="308.8867"/><polygon fill="#181818" points="67,298.8867,71,308.8867,75,298.8867,71,302.8867" style="stroke:#181818;stroke-width:1.0;"/><line style="stroke:#181818;stroke-width:1.0;" x1="205" x2="205" y1="288.8867" y2="308.8867"/><polygon fill="#181818" points="201,298.8867,205,308.8867,209,298.8867,205,302.8867" style="stroke:#181818;stroke-width:1.0;"/><line style="stroke:#181818;stroke-width:1.0;" x1="357" x2="357" y1="288.8867" y2="308.8867"/><polygon fill="#181818" points="353,298.8867,357,308.8867,361,298.8867,357,302.8867" style="stroke:#181818;stroke-width:1.0;"/><line style="stroke:#181818;stroke-width:1.0;" x1="485" x2="485" y1="288.8867" y2="308.8867"/><polygon fill="#181818" points="481,298.8867,485,308.8867,489,298.8867,485,302.8867" style="stroke:#181818;stroke-width:1.0;"/><line style="stroke:#181818;stroke-width:1.0;" x1="623" x2="623" y1="288.8867" y2="308.8867"/><polygon fill="#181818" points="619,298.8867,623,308.8867,627,298.8867,623,302.8867" style="stroke:#181818;stroke-width:1.0;"/><line style="stroke:#181818;stroke-width:1.0;" x1="773" x2="773" y1="288.8867" y2="308.8867"/><polygon fill="#181818" points="769,298.8867,773,308.8867,777,298.8867,773,302.8867" style="stroke:#181818;stroke-width:1.0;"/><line style="stroke:#181818;stroke-width:1.0;" x1="917" x2="917" y1="288.8867" y2="308.8867"/><polygon fill="#181818" points="913,298.8867,917,308.8867,921,298.8867,917,302.8867" style="stroke:#181818;stroke-width:1.0;"/><line style="stroke:#181818;stroke-width:1.0;" x1="505" x2="505" y1="314.8867" y2="366.3867"/><polygon fill="#181818" points="501,356.3867,505,366.3867,509,356.3867,505,360.3867" style="stroke:#181818;stroke-width:1.0;"/><path d="M517.25,332.3867 C512.6937,332.3867 509,336.0804 509,340.6367 C509,345.193 512.6937,348.8867 517.25,348.8867 C521.8063,348.8867 525.5,345.193 525.5,340.6367 C525.5,336.0804 521.8063,332.3867 517.25,332.3867 M523.2083,340.6367 C523.2083,341.8123 522.8632,342.9055 522.2756,343.829 L514.0582,335.6116 C514.9813,335.0235 516.0744,334.6784 517.25,334.6784 C520.5408,334.6784 523.2083,337.3463 523.2083,340.6367 M511.2917,340.6367 C511.2917,339.4611 511.6368,338.368 512.2248,337.4449 L520.4423,345.6623 C519.5188,346.2499 518.4256,346.5951 517.25,346.5951 C513.9596,346.5951 511.2917,343.9276 511.2917,340.6367 " fill="#DD2E44" style="stroke:;stroke-width:0.0;stroke-dasharray:;"/><line style="stroke:#181818;stroke-width:1.0;" x1="505" x2="505" y1="405.8867" y2="440.8867"/><polygon fill="#181818" points="501,430.8867,505,440.8867,509,430.8867,505,434.8867" style="stroke:#181818;stroke-width:1.0;"/><line style="stroke:#181818;stroke-width:1.0;" x1="505" x2="505" y1="475.0195" y2="510.0195"/><polygon fill="#181818" points="501,500.0195,505,510.0195,509,500.0195,505,504.0195" style="stroke:#181818;stroke-width:1.0;"/><line style="stroke:#181818;stroke-width:1.0;" x1="505" x2="505" y1="182.2656" y2="228.7539"/><polygon fill="#181818" points="501,218.7539,505,228.7539,509,218.7539,505,222.7539" style="stroke:#181818;stroke-width:1.0;"/><line style="stroke:#181818;stroke-width:1.0;" x1="576" x2="1009" y1="170.2656" y2="170.2656"/><polygon fill="#181818" points="1005,359.1426,1009,369.1426,1013,359.1426,1009,363.1426" style="stroke:#181818;stroke-width:1.0;"/><line style="stroke:#181818;stroke-width:1.0;" x1="1009" x2="1009" y1="170.2656" y2="574.0195"/><line style="stroke:#181818;stroke-width:1.0;" x1="1009" x2="505" y1="574.0195" y2="574.0195"/><line style="stroke:#181818;stroke-width:1.0;" x1="505" x2="505" y1="574.0195" y2="620.5078"/><polygon fill="#181818" points="501,610.5078,505,620.5078,509,610.5078,505,614.5078" style="stroke:#181818;stroke-width:1.0;"/><line style="stroke:#181818;stroke-width:1.0;" x1="505" x2="505" y1="138.2656" y2="158.2656"/><polygon fill="#181818" points="501,148.2656,505,158.2656,509,148.2656,505,152.2656" style="stroke:#181818;stroke-width:1.0;"/><line style="stroke:#181818;stroke-width:1.0;" x1="351" x2="351" y1="626.5078" y2="646.5078"/><polygon fill="#181818" points="347,636.5078,351,646.5078,355,636.5078,351,640.5078" style="stroke:#181818;stroke-width:1.0;"/><line style="stroke:#181818;stroke-width:1.0;" x1="515" x2="515" y1="626.5078" y2="646.5078"/><polygon fill="#181818" points="511,636.5078,515,646.5078,519,636.5078,515,640.5078" style="stroke:#181818;stroke-width:1.0;"/><line style="stroke:#181818;stroke-width:1.0;" x1="655" x2="655" y1="626.5078" y2="646.5078"/><polygon fill="#181818" points="651,636.5078,655,646.5078,659,636.5078,655,640.5078" style="stroke:#181818;stroke-width:1.0;"/><line style="stroke:#181818;stroke-width:1.0;" x1="743" x2="743" y1="626.5078" y2="700.6406"/><polygon fill="#181818" points="739,690.6406,743,700.6406,747,690.6406,743,694.6406" style="stroke:#181818;stroke-width:1.0;"/><line style="stroke:#181818;stroke-width:1.0;" x1="351" x2="351" y1="680.6406" y2="700.6406"/><polygon fill="#181818" points="347,690.6406,351,700.6406,355,690.6406,351,694.6406" style="stroke:#181818;stroke-width:1.0;"/><line style="stroke:#181818;stroke-width:1.0;" x1="515" x2="515" y1="680.6406" y2="700.6406"/><polygon fill="#181818" points="511,690.6406,515,700.6406,519,690.6406,515,694.6406" style="stroke:#181818;stroke-width:1.0;"/><line style="stroke:#181818;stroke-width:1.0;" x1="655" x2="655" y1="680.6406" y2="700.6406"/><polygon fill="#181818" points="651,690.6406,655,700.6406,659,690.6406,655,694.6406" style="stroke:#181818;stroke-width:1.0;"/><line style="stroke:#181818;stroke-width:1.0;" x1="505" x2="505" y1="706.6406" y2="741.6406"/><polygon fill="#181818" points="501,731.6406,505,741.6406,509,731.6406,505,735.6406" style="stroke:#181818;stroke-width:1.0;"/><line style="stroke:#181818;stroke-width:1.0;" x1="505" x2="505" y1="84.1328" y2="104.1328"/><polygon fill="#181818" points="501,94.1328,505,104.1328,509,94.1328,505,98.1328" style="stroke:#181818;stroke-width:1.0;"/><line style="stroke:#181818;stroke-width:1.0;" x1="566.5" x2="1086" y1="833.1406" y2="833.1406"/><line style="stroke:#181818;stroke-width:1.0;" x1="1086" x2="1086" y1="469.3203" y2="833.1406"/><polygon fill="#181818" points="1082,479.3203,1086,469.3203,1090,479.3203,1086,475.3203" style="stroke:#181818;stroke-width:1.0;"/><line style="stroke:#181818;stroke-width:1.0;" x1="1086" x2="1086" y1="67.0664" y2="429.8203"/><line style="stroke:#181818;stroke-width:1.0;" x1="1086" x2="593" y1="67.0664" y2="67.0664"/><polygon fill="#181818" points="603,63.0664,593,67.0664,603,71.0664,599,67.0664" style="stroke:#181818;stroke-width:1.0;"/><line style="stroke:#181818;stroke-width:1.0;" x1="505" x2="505" y1="781.1406" y2="821.1406"/><polygon fill="#181818" points="501,811.1406,505,821.1406,509,811.1406,505,815.1406" style="stroke:#181818;stroke-width:1.0;"/><line style="stroke:#181818;stroke-width:1.0;" x1="505" x2="505" y1="30" y2="50"/><polygon fill="#181818" points="501,40,505,50,509,40,505,44" style="stroke:#181818;stroke-width:1.0;"/><line style="stroke:#181818;stroke-width:1.0;" x1="505" x2="505" y1="845.1406" y2="865.1406"/><polygon fill="#181818" points="501,855.1406,505,865.1406,509,855.1406,505,859.1406" style="stroke:#181818;stroke-width:1.0;"/><!--MD5=[eb2928046331d02b3b8c0b75c36a4358]
@startuml
!$no = "<:1f6ab:>"
' !$no = "<color:crimson>no"
' !$yes = "<color:palegreen>yes"
!$ok = "<:1f44c:>"
!$stop = "<:1f4f5:>"
!$greenOk = "#PaleGreen:Ok"
!$iphone = "<:1f4f1:>"
start
repeat :携帯電話は箱にしまっておく;
:使っていい日になったら;
if (携帯の電源を入れる On) then
  rectangle 駄目な場合 {
    fork
      :20時以降;
    fork again
      :許可された日じゃない;
    fork again
      :30分以上使った;
    fork again
      :勉強してない;
    fork again
      :お客がいる時に使用;
    fork again
      :外に持って行った;
    fork again
      :使用時間外に使用;
    end fork
    ' #Crimsom:$stop 禁止;
    ->$no;
    :禁止 $stop;
    :規則違反の場合一週間使用不可;
    stop
  }
endif
backward:次の日まで待つ <:1f557:>;
rectangle 良い場合 {
  fork
    :勉強に使うのなら45分まで;
  fork again
    :ゲームは週一回;
  fork again
    :平日二回 週末一回;
  fork again
  end fork
  $greenOk $iphone;
}
repeat while (使い終わったら消す)
stop
@enduml

@startuml
start
repeat :携帯電話は箱にしまっておく;
:使っていい日になったら;
if (携帯の電源を入れる On) then
  rectangle 駄目な場合 {
    fork
      :20時以降;
    fork again
      :許可された日じゃない;
    fork again
      :30分以上使った;
    fork again
      :勉強してない;
    fork again
      :お客がいる時に使用;
    fork again
      :外に持って行った;
    fork again
      :使用時間外に使用;
    end fork
    -><:1f6ab:>;
    :禁止 <:1f4f5:>;
    :規則違反の場合一週間使用不可;
    stop
  }
endif
backward:次の日まで待つ <:1f557:>;
rectangle 良い場合 {
  fork
    :勉強に使うのなら45分まで;
  fork again
    :ゲームは週一回;
  fork again
    :平日二回 週末一回;
  fork again
  end fork
  #PaleGreen:Ok <:1f4f1:>;
}
repeat while (使い終わったら消す)
stop
@enduml

PlantUML version 1.2022.7(Mon Aug 22 19:01:30 CEST 2022)
(GPL source distribution)
Java Runtime: OpenJDK Runtime Environment
JVM: OpenJDK 64-Bit Server VM
Default Encoding: UTF-8
Language: ja
Country: FR
--></g></svg>